<?xml version="1.0" encoding="utf-8"?>
<!-- Generator: Adobe Illustrator 20.1.0, SVG Export Plug-In . SVG Version: 6.00 Build 0)  -->
<svg version="1.1" id="Layer_1" xmlns="http://www.w3.org/2000/svg" xmlns:xlink="http://www.w3.org/1999/xlink" x="0px" y="0px"
	 viewBox="0 0 191 57" style="enable-background:new 0 0 191 57;" xml:space="preserve">
<style type="text/css">
	.st0{enable-background:new    ;}
	.st1{fill:#FFFFFF;}
	.st2{fill:#ED8B00;}
	.st3{fill:none;}
</style>
<text transform="matrix(1 0 0 1 -2927.9375 2776.4978)" class="st1" style="font-family:'ProximaNova-Semibold'; font-size:12px;">©2016 Lumi Technologies LTD | Terms and Conditions | Privacy Policy | Sitemap | Powered by Lumi</text>
<g>
	<g>
		<path class="st1" d="M91.3,42.8H72.8c-1.2,0-2.2-1-2.2-2.2V16.4c0-1.2,1-2.2,2.2-2.2s2.2,1,2.2,2.2v22h16.3c1.2,0,2.2,1,2.2,2.2
			S92.5,42.8,91.3,42.8z"/>
	</g>
	<g>
		<path class="st1" d="M113.6,43c-8.8,0-13.5-5.7-13.5-11.1V16.2c0-1.2,1-2.2,2.2-2.2s2.2,1,2.2,2.2v15.7c0,3.2,3.2,6.7,9.1,6.7
			s9.1-3.4,9.1-6.7V16.2c0-1.2,1-2.2,2.2-2.2s2.2,1,2.2,2.2v15.7C127.1,37.3,122.3,43,113.6,43z"/>
	</g>
	<g>
		<path class="st1" d="M155.2,42.9L155.2,42.9c-0.8,0-1.5-0.4-1.9-1.1l-10.5-17.6v16.3c0,1.2-1,2.2-2.2,2.2s-2.2-1-2.2-2.2V16.3
			c0-1,0.7-1.8,1.6-2.1c0.9-0.3,2,0.1,2.5,1l12.7,21.2l12.7-21.2c0.5-0.8,1.5-1.2,2.5-1c0.9,0.3,1.6,1.1,1.6,2.1v24.2
			c0,1.2-1,2.2-2.2,2.2s-2.2-1-2.2-2.2V24.2l-10.5,17.6C156.7,42.5,156,42.9,155.2,42.9z"/>
	</g>
	<g>
		<path class="st1" d="M187.8,42.8c-1.2,0-2.2-1-2.2-2.2V16.4c0-1.2,1-2.2,2.2-2.2s2.2,1,2.2,2.2v24.2C190,41.8,189,42.8,187.8,42.8
			z"/>
	</g>
	<g>
		<g>
			<ellipse transform="matrix(0.7071 -0.7071 0.7071 0.7071 -36.0178 19.0514)" class="st2" cx="5" cy="53" rx="2.2" ry="2.2"/>
			<circle class="st2" cx="11" cy="47" r="3.8"/>
			<circle class="st2" cx="18.6" cy="39.3" r="5.9"/>
			<path class="st2" d="M25.9,32.1c0.3-1.6,1.8,6.7,1.8,6.7c-1.5-0.3-2.9,0.6-3.3,2c0,0.1-3.4-6.8-1.8-6.5
				C24,34.7,25.5,33.7,25.9,32.1z"/>
			<circle class="st2" cx="29" cy="29" r="10"/>
			<path class="st2" d="M19.1,30.5c0.1,0.9-0.1,1.8-0.8,2.4c-0.4,0.4-0.8,0.6-1.3,0.7l2,2l2.6-2.6L19.1,30.5z"/>
			<ellipse transform="matrix(0.7071 -0.7071 0.7071 0.7071 -2.0654 4.9878)" class="st2" cx="5" cy="5" rx="2.2" ry="2.2"/>
			<circle class="st2" cx="11" cy="11" r="3.8"/>
			<circle class="st2" cx="18.6" cy="18.6" r="5.9"/>
			<path class="st2" d="M25.8,25.9c1.6,0.3-6.7,1.8-6.7,1.8c0.3-1.5-0.6-2.9-2-3.3c-0.1,0,6.8-3.4,6.5-1.8
				C23.3,24,24.3,25.5,25.8,25.9z"/>
			<circle class="st2" cx="29" cy="29" r="10"/>
			<path class="st2" d="M27.5,19.1c-0.9,0.1-1.8-0.1-2.4-0.8c-0.4-0.4-0.6-0.8-0.7-1.3l-2,2l2.6,2.6L27.5,19.1z"/>
			<ellipse transform="matrix(0.7071 -0.7071 0.7071 0.7071 11.9982 38.9403)" class="st2" cx="53" cy="5" rx="2.2" ry="2.2"/>
			<circle class="st2" cx="47" cy="11" r="3.8"/>
			<circle class="st2" cx="39.3" cy="18.6" r="5.9"/>
			<path class="st2" d="M32.1,25.8c-0.3,1.6-1.8-6.7-1.8-6.7c1.5,0.3,2.9-0.6,3.3-2c0-0.1,3.4,6.8,1.8,6.5
				C33.9,23.3,32.4,24.3,32.1,25.8z"/>
			<circle class="st2" cx="29" cy="29" r="10"/>
			<path class="st2" d="M38.9,27.5c-0.1-0.9,0.1-1.8,0.8-2.4c0.4-0.4,0.8-0.6,1.3-0.7l-2-2l-2.6,2.6L38.9,27.5z"/>
			<ellipse transform="matrix(0.7071 -0.7071 0.7071 0.7071 -21.9543 53.0039)" class="st2" cx="53" cy="53" rx="2.2" ry="2.2"/>
			<circle class="st2" cx="47" cy="47" r="3.8"/>
			<circle class="st2" cx="39.3" cy="39.3" r="5.9"/>
			<path class="st2" d="M32.1,32.1c-1.6-0.3,6.7-1.8,6.7-1.8c-0.3,1.5,0.6,2.9,2,3.3c0.1,0-6.8,3.4-6.5,1.8
				C34.7,33.9,33.7,32.4,32.1,32.1z"/>
			<circle class="st2" cx="29" cy="29" r="10"/>
			<path class="st2" d="M30.5,38.9c0.9-0.1,1.8,0.1,2.4,0.8c0.4,0.4,0.6,0.8,0.7,1.3l2-2l-2.6-2.6L30.5,38.9z"/>
		</g>
		<rect x="-3" y="-3" class="st3" width="64" height="64"/>
	</g>
</g>
</svg>
